<svg xmlns="http://www.w3.org/2000/svg" xmlns:xlink="http://www.w3.org/1999/xlink" version="1.1" class="marks" width="843" height="703" viewBox="0 0 843 703"><g fill="none" stroke-miterlimit="10" transform="translate(471,471)"><g class="mark-group role-frame root" role="graphics-object" aria-roledescription="group mark container"><g transform="translate(0,0)"><path class="background" aria-hidden="true" d="M0,0h230v230h-230Z"/><g><g class="mark-rect role-mark" role="graphics-symbol" aria-roledescription="rect mark container"><path d="M0,0h9v9h-9Z" fill="#cccccc" fill-opacity="0.45"/><path d="M10,10h9v9h-9Z" fill="#cccccc" fill-opacity="0.45"/><path d="M20,20h9v9h-9Z" fill="#cccccc" fill-opacity="0.45"/><path d="M30,30h9v9h-9Z" fill="#cccccc" fill-opacity="0.45"/><path d="M40,40h9v9h-9Z" fill="#cccccc" fill-opacity="0.45"/><path d="M50,50h9v9h-9Z" fill="#cccccc" fill-opacity="0.45"/><path d="M60,60h9v9h-9Z" fill="#cccccc" fill-opacity="0.45"/><path d="M70,70h9v9h-9Z" fill="#cccccc" fill-opacity="0.45"/><path d="M80,80h9v9h-9Z" fill="#cccccc" fill-opacity="0.45"/><path d="M90,90h9v9h-9Z" fill="#cccccc" fill-opacity="0.45"/><path d="M100,100h9v9h-9Z" fill="#cccccc" fill-opacity="0.45"/><path d="M110,110h9v9h-9Z" fill="#cccccc" fill-opacity="0.45"/><path d="M120,120h9v9h-9Z" fill="#cccccc" fill-opacity="0.45"/><path d="M130,130h9v9h-9Z" fill="#cccccc" fill-opacity="0.45"/><path d="M140,140h9v9h-9Z" fill="#cccccc" fill-opacity="0.45"/><path d="M150,150h9v9h-9Z" fill="#cccccc" fill-opacity="0.45"/><path d="M160,160h9v9h-9Z" fill="#cccccc" fill-opacity="0.45"/><path d="M170,170h9v9h-9Z" fill="#cccccc" fill-opacity="0.45"/><path d="M180,180h9v9h-9Z" fill="#cccccc" fill-opacity="0.45"/><path d="M190,190h9v9h-9Z" fill="#cccccc" fill-opacity="0.45"/><path d="M200,200h9v9h-9Z" fill="#cccccc" fill-opacity="0.45"/><path d="M210,210h9v9h-9Z" fill="#cccccc" fill-opacity="0.45"/><path d="M220,220h9v9h-9Z" fill="#cccccc" fill-opacity="0.45"/></g><g class="mark-rect role-mark rowHighlight" role="graphics-symbol" aria-roledescription="rect mark container"><path d="M0,0h230v10h-230Z" fill-opacity="0.3"/><path d="M0,10h230v10h-230Z" fill-opacity="0.3"/><path d="M0,20h230v10h-230Z" fill-opacity="0.3"/><path d="M0,30h230v10h-230Z" fill-opacity="0.3"/><path d="M0,40h230v10h-230Z" fill-opacity="0.3"/><path d="M0,50h230v10h-230Z" fill-opacity="0.3"/><path d="M0,60h230v10h-230Z" fill-opacity="0.3"/><path d="M0,70h230v10h-230Z" fill-opacity="0.3"/><path d="M0,80h230v10h-230Z" fill-opacity="0.3"/><path d="M0,90h230v10h-230Z" fill-opacity="0.3"/><path d="M0,100h230v10h-230Z" fill-opacity="0.3"/><path d="M0,110h230v10h-230Z" fill-opacity="0.3"/><path d="M0,120h230v10h-230Z" fill-opacity="0.3"/><path d="M0,130h230v10h-230Z" fill-opacity="0.3"/><path d="M0,140h230v10h-230Z" fill-opacity="0.3"/><path d="M0,150h230v10h-230Z" fill-opacity="0.3"/><path d="M0,160h230v10h-230Z" fill-opacity="0.3"/><path d="M0,170h230v10h-230Z" fill-opacity="0.3"/><path d="M0,180h230v10h-230Z" fill-opacity="0.3"/><path d="M0,190h230v10h-230Z" fill-opacity="0.3"/><path d="M0,200h230v10h-230Z" fill-opacity="0.3"/><path d="M0,210h230v10h-230Z" fill-opacity="0.3"/><path d="M0,220h230v10h-230Z" fill-opacity="0.3"/></g><g class="mark-rect role-mark colHighlight" role="graphics-symbol" aria-roledescription="rect mark container"><path d="M0,0h10v230h-10Z" fill-opacity="0.3"/><path d="M10,0h10v230h-10Z" fill-opacity="0.3"/><path d="M20,0h10v230h-10Z" fill-opacity="0.3"/><path d="M30,0h10v230h-10Z" fill-opacity="0.3"/><path d="M40,0h10v230h-10Z" fill-opacity="0.3"/><path d="M50,0h10v230h-10Z" fill-opacity="0.3"/><path d="M60,0h10v230h-10Z" fill-opacity="0.3"/><path d="M70,0h10v230h-10Z" fill-opacity="0.3"/><path d="M80,0h10v230h-10Z" fill-opacity="0.3"/><path d="M90,0h10v230h-10Z" fill-opacity="0.3"/><path d="M100,0h10v230h-10Z" fill-opacity="0.3"/><path d="M110,0h10v230h-10Z" fill-opacity="0.3"/><path d="M120,0h10v230h-10Z" fill-opacity="0.3"/><path d="M130,0h10v230h-10Z" fill-opacity="0.3"/><path d="M140,0h10v230h-10Z" fill-opacity="0.3"/><path d="M150,0h10v230h-10Z" fill-opacity="0.3"/><path d="M160,0h10v230h-10Z" fill-opacity="0.3"/><path d="M170,0h10v230h-10Z" fill-opacity="0.3"/><path d="M180,0h10v230h-10Z" fill-opacity="0.3"/><path d="M190,0h10v230h-10Z" fill-opacity="0.3"/><path d="M200,0h10v230h-10Z" fill-opacity="0.3"/><path d="M210,0h10v230h-10Z" fill-opacity="0.3"/><path d="M220,0h10v230h-10Z" fill-opacity="0.3"/></g><g class="mark-rect role-mark colHighlightOnColumnClick" role="graphics-symbol" aria-roledescription="rect mark container"><path d="M0,0h10v230h-10Z" fill-opacity="0.3"/><path d="M10,0h10v230h-10Z" fill-opacity="0.3"/><path d="M20,0h10v230h-10Z" fill-opacity="0.3"/><path d="M30,0h10v230h-10Z" fill-opacity="0.3"/><path d="M40,0h10v230h-10Z" fill-opacity="0.3"/><path d="M50,0h10v230h-10Z" fill-opacity="0.3"/><path d="M60,0h10v230h-10Z" fill-opacity="0.3"/><path d="M70,0h10v230h-10Z" fill-opacity="0.3"/><path d="M80,0h10v230h-10Z" fill-opacity="0.3"/><path d="M90,0h10v230h-10Z" fill-opacity="0.3"/><path d="M100,0h10v230h-10Z" fill-opacity="0.3"/><path d="M110,0h10v230h-10Z" fill-opacity="0.3"/><path d="M120,0h10v230h-10Z" fill-opacity="0.3"/><path d="M130,0h10v230h-10Z" fill-opacity="0.3"/><path d="M140,0h10v230h-10Z" fill-opacity="0.3"/><path d="M150,0h10v230h-10Z" fill-opacity="0.3"/><path d="M160,0h10v230h-10Z" fill-opacity="0.3"/><path d="M170,0h10v230h-10Z" fill-opacity="0.3"/><path d="M180,0h10v230h-10Z" fill-opacity="0.3"/><path d="M190,0h10v230h-10Z" fill-opacity="0.3"/><path d="M200,0h10v230h-10Z" fill-opacity="0.3"/><path d="M210,0h10v230h-10Z" fill-opacity="0.3"/><path d="M220,0h10v230h-10Z" fill-opacity="0.3"/></g><g class="mark-rect role-mark rowHighlightOnColumnClick" role="graphics-symbol" aria-roledescription="rect mark container"><path d="M0,0h230v10h-230Z" fill-opacity="0.3"/><path d="M0,10h230v10h-230Z" fill-opacity="0.3"/><path d="M0,20h230v10h-230Z" fill-opacity="0.3"/><path d="M0,30h230v10h-230Z" fill-opacity="0.3"/><path d="M0,40h230v10h-230Z" fill-opacity="0.3"/><path d="M0,50h230v10h-230Z" fill-opacity="0.3"/><path d="M0,60h230v10h-230Z" fill-opacity="0.3"/><path d="M0,70h230v10h-230Z" fill-opacity="0.3"/><path d="M0,80h230v10h-230Z" fill-opacity="0.3"/><path d="M0,90h230v10h-230Z" fill-opacity="0.3"/><path d="M0,100h230v10h-230Z" fill-opacity="0.3"/><path d="M0,110h230v10h-230Z" fill-opacity="0.3"/><path d="M0,120h230v10h-230Z" fill-opacity="0.3"/><path d="M0,130h230v10h-230Z" fill-opacity="0.3"/><path d="M0,140h230v10h-230Z" fill-opacity="0.3"/><path d="M0,150h230v10h-230Z" fill-opacity="0.3"/><path d="M0,160h230v10h-230Z" fill-opacity="0.3"/><path d="M0,170h230v10h-230Z" fill-opacity="0.3"/><path d="M0,180h230v10h-230Z" fill-opacity="0.3"/><path d="M0,190h230v10h-230Z" fill-opacity="0.3"/><path d="M0,200h230v10h-230Z" fill-opacity="0.3"/><path d="M0,210h230v10h-230Z" fill-opacity="0.3"/><path d="M0,220h230v10h-230Z" fill-opacity="0.3"/></g><g class="mark-text role-mark columns" role="graphics-object" aria-roledescription="text mark container"><text text-anchor="start" transform="translate(5,-2) rotate(-90) translate(0,3)" font-family="sans-serif" font-size="10px" fill="black">appServicePlan: Resource</text><text text-anchor="start" transform="translate(15,-2) rotate(-90) translate(0,3)" font-family="sans-serif" font-size="10px" fill="black">appServiceAppHostName: Output</text><text text-anchor="start" transform="translate(25,-2) rotate(-90) translate(0,3)" font-family="sans-serif" font-size="10px" fill="black">appServicePlanName: Parameter</text><text text-anchor="start" transform="translate(35,-2) rotate(-90) translate(0,3)" font-family="sans-serif" font-size="10px" fill="black">file:///Users/andrei/repo/PSBicepGraph/src/PSBicepGraph.Pester.Tests/templates/app/main.bicep</text><text text-anchor="start" transform="translate(45,-2) rotate(-90) translate(0,3)" font-family="sans-serif" font-size="10px" fill="black">appServicePlanSkuName: Parameter</text><text text-anchor="start" transform="translate(55,-2) rotate(-90) translate(0,3)" font-family="sans-serif" font-size="10px" fill="black">app: Module</text><text text-anchor="start" transform="translate(65,-2) rotate(-90) translate(0,3)" font-family="sans-serif" font-size="10px" fill="black">appServiceAppName: Parameter</text><text text-anchor="start" transform="translate(75,-2) rotate(-90) translate(0,3)" font-family="sans-serif" font-size="10px" fill="black">file:///Users/andrei/repo/PSBicepGraph/src/PSBicepGraph.Pester.Tests/templates/app/modules/app.bicep</text><text text-anchor="start" transform="translate(85,-2) rotate(-90) translate(0,3)" font-family="sans-serif" font-size="10px" fill="black">location: Parameter</text><text text-anchor="start" transform="translate(95,-2) rotate(-90) translate(0,3)" font-family="sans-serif" font-size="10px" fill="black">appServiceApp: Resource</text><text text-anchor="start" transform="translate(105,-2) rotate(-90) translate(0,3)" font-family="sans-serif" font-size="10px" fill="black">appServicePlanName: Variable</text><text text-anchor="start" transform="translate(115,-2) rotate(-90) translate(0,3)" font-family="sans-serif" font-size="10px" fill="black">endpoint: Resource</text><text text-anchor="start" transform="translate(125,-2) rotate(-90) translate(0,3)" font-family="sans-serif" font-size="10px" fill="black">httpsOnly: Parameter</text><text text-anchor="start" transform="translate(135,-2) rotate(-90) translate(0,3)" font-family="sans-serif" font-size="10px" fill="black">endpointHostName: Output</text><text text-anchor="start" transform="translate(145,-2) rotate(-90) translate(0,3)" font-family="sans-serif" font-size="10px" fill="black">cdnProfile: Resource</text><text text-anchor="start" transform="translate(155,-2) rotate(-90) translate(0,3)" font-family="sans-serif" font-size="10px" fill="black">deployCdn: Parameter</text><text text-anchor="start" transform="translate(165,-2) rotate(-90) translate(0,3)" font-family="sans-serif" font-size="10px" fill="black">cdn: Module</text><text text-anchor="start" transform="translate(175,-2) rotate(-90) translate(0,3)" font-family="sans-serif" font-size="10px" fill="black">websiteHostName: Output</text><text text-anchor="start" transform="translate(185,-2) rotate(-90) translate(0,3)" font-family="sans-serif" font-size="10px" fill="black">originHostName: Parameter</text><text text-anchor="start" transform="translate(195,-2) rotate(-90) translate(0,3)" font-family="sans-serif" font-size="10px" fill="black">profileName: Parameter</text><text text-anchor="start" transform="translate(205,-2) rotate(-90) translate(0,3)" font-family="sans-serif" font-size="10px" fill="black">originName: Variable</text><text text-anchor="start" transform="translate(215,-2) rotate(-90) translate(0,3)" font-family="sans-serif" font-size="10px" fill="black">file:///Users/andrei/repo/PSBicepGraph/src/PSBicepGraph.Pester.Tests/templates/app/modules/cdn.bicep</text><text text-anchor="start" transform="translate(225,-2) rotate(-90) translate(0,3)" font-family="sans-serif" font-size="10px" fill="black">endpointName: Parameter</text></g><g class="mark-text role-mark rows" role="graphics-object" aria-roledescription="text mark container"><text text-anchor="end" transform="translate(-2,8)" font-family="sans-serif" font-size="10px" fill="black">appServicePlan: Resource</text><text text-anchor="end" transform="translate(-2,18)" font-family="sans-serif" font-size="10px" fill="black">appServiceAppHostName: Output</text><text text-anchor="end" transform="translate(-2,28)" font-family="sans-serif" font-size="10px" fill="black">appServicePlanName: Parameter</text><text text-anchor="end" transform="translate(-2,38)" font-family="sans-serif" font-size="10px" fill="black">file:///Users/andrei/repo/PSBicepGraph/src/PSBicepGraph.Pester.Tests/templates/app/main.bicep</text><text text-anchor="end" transform="translate(-2,48)" font-family="sans-serif" font-size="10px" fill="black">appServicePlanSkuName: Parameter</text><text text-anchor="end" transform="translate(-2,58)" font-family="sans-serif" font-size="10px" fill="black">app: Module</text><text text-anchor="end" transform="translate(-2,68)" font-family="sans-serif" font-size="10px" fill="black">appServiceAppName: Parameter</text><text text-anchor="end" transform="translate(-2,78)" font-family="sans-serif" font-size="10px" fill="black">file:///Users/andrei/repo/PSBicepGraph/src/PSBicepGraph.Pester.Tests/templates/app/modules/app.bicep</text><text text-anchor="end" transform="translate(-2,88)" font-family="sans-serif" font-size="10px" fill="black">location: Parameter</text><text text-anchor="end" transform="translate(-2,98)" font-family="sans-serif" font-size="10px" fill="black">appServiceApp: Resource</text><text text-anchor="end" transform="translate(-2,108)" font-family="sans-serif" font-size="10px" fill="black">appServicePlanName: Variable</text><text text-anchor="end" transform="translate(-2,118)" font-family="sans-serif" font-size="10px" fill="black">endpoint: Resource</text><text text-anchor="end" transform="translate(-2,128)" font-family="sans-serif" font-size="10px" fill="black">httpsOnly: Parameter</text><text text-anchor="end" transform="translate(-2,138)" font-family="sans-serif" font-size="10px" fill="black">endpointHostName: Output</text><text text-anchor="end" transform="translate(-2,148)" font-family="sans-serif" font-size="10px" fill="black">cdnProfile: Resource</text><text text-anchor="end" transform="translate(-2,158)" font-family="sans-serif" font-size="10px" fill="black">deployCdn: Parameter</text><text text-anchor="end" transform="translate(-2,168)" font-family="sans-serif" font-size="10px" fill="black">cdn: Module</text><text text-anchor="end" transform="translate(-2,178)" font-family="sans-serif" font-size="10px" fill="black">websiteHostName: Output</text><text text-anchor="end" transform="translate(-2,188)" font-family="sans-serif" font-size="10px" fill="black">originHostName: Parameter</text><text text-anchor="end" transform="translate(-2,198)" font-family="sans-serif" font-size="10px" fill="black">profileName: Parameter</text><text text-anchor="end" transform="translate(-2,208)" font-family="sans-serif" font-size="10px" fill="black">originName: Variable</text><text text-anchor="end" transform="translate(-2,218)" font-family="sans-serif" font-size="10px" fill="black">file:///Users/andrei/repo/PSBicepGraph/src/PSBicepGraph.Pester.Tests/templates/app/modules/cdn.bicep</text><text text-anchor="end" transform="translate(-2,228)" font-family="sans-serif" font-size="10px" fill="black">endpointName: Parameter</text></g><g class="mark-group role-legend" role="graphics-symbol" aria-roledescription="legend" aria-label="Symbol legend titled 'Cluster pairs (src→dst)' for fill color with 4 values: 4, 5, 7, 8"><g transform="translate(248,0)"><path class="background" aria-hidden="true" d="M0,0h122v66h-122Z" pointer-events="none"/><g><g class="mark-group role-legend-entry"><g transform="translate(0,16)"><path class="background" aria-hidden="true" d="M0,0h0v0h0Z" pointer-events="none"/><g><g class="mark-group role-scope" role="graphics-object" aria-roledescription="group mark container"><g transform="translate(0,0)"><path class="background" aria-hidden="true" d="M0,0h21.5615234375v11h-21.5615234375Z" pointer-events="none" opacity="1"/><g><g class="mark-symbol role-legend-symbol" pointer-events="none"><path transform="translate(6,6)" d="M5,0A5,5,0,1,1,-5,0A5,5,0,1,1,5,0" fill="#4c78a8" stroke-width="1.5" opacity="1"/></g><g class="mark-text role-legend-label" pointer-events="none"><text text-anchor="start" transform="translate(16,9)" font-family="sans-serif" font-size="10px" fill="#000" opacity="1">4</text></g></g><path class="foreground" aria-hidden="true" d="" pointer-events="none" display="none"/></g><g transform="translate(0,13)"><path class="background" aria-hidden="true" d="M0,0h21.5615234375v11h-21.5615234375Z" pointer-events="none" opacity="1"/><g><g class="mark-symbol role-legend-symbol" pointer-events="none"><path transform="translate(6,6)" d="M5,0A5,5,0,1,1,-5,0A5,5,0,1,1,5,0" fill="#f58518" stroke-width="1.5" opacity="1"/></g><g class="mark-text role-legend-label" pointer-events="none"><text text-anchor="start" transform="translate(16,9)" font-family="sans-serif" font-size="10px" fill="#000" opacity="1">5</text></g></g><path class="foreground" aria-hidden="true" d="" pointer-events="none" display="none"/></g><g transform="translate(0,26)"><path class="background" aria-hidden="true" d="M0,0h21.5615234375v11h-21.5615234375Z" pointer-events="none" opacity="1"/><g><g class="mark-symbol role-legend-symbol" pointer-events="none"><path transform="translate(6,6)" d="M5,0A5,5,0,1,1,-5,0A5,5,0,1,1,5,0" fill="#e45756" stroke-width="1.5" opacity="1"/></g><g class="mark-text role-legend-label" pointer-events="none"><text text-anchor="start" transform="translate(16,9)" font-family="sans-serif" font-size="10px" fill="#000" opacity="1">7</text></g></g><path class="foreground" aria-hidden="true" d="" pointer-events="none" display="none"/></g><g transform="translate(0,39)"><path class="background" aria-hidden="true" d="M0,0h21.5615234375v11h-21.5615234375Z" pointer-events="none" opacity="1"/><g><g class="mark-symbol role-legend-symbol" pointer-events="none"><path transform="translate(6,6)" d="M5,0A5,5,0,1,1,-5,0A5,5,0,1,1,5,0" fill="#72b7b2" stroke-width="1.5" opacity="1"/></g><g class="mark-text role-legend-label" pointer-events="none"><text text-anchor="start" transform="translate(16,9)" font-family="sans-serif" font-size="10px" fill="#000" opacity="1">8</text></g></g><path class="foreground" aria-hidden="true" d="" pointer-events="none" display="none"/></g></g></g><path class="foreground" aria-hidden="true" d="" pointer-events="none" display="none"/></g></g><g class="mark-text role-legend-title" pointer-events="none"><text text-anchor="start" transform="translate(0,9)" font-family="sans-serif" font-size="11px" font-weight="bold" fill="#000" opacity="1">Cluster pairs (src→dst)</text></g></g><path class="foreground" aria-hidden="true" d="" pointer-events="none" display="none"/></g></g><g class="mark-rect role-mark" role="graphics-symbol" aria-roledescription="rect mark container"><path d="M20,0h9v9h-9Z" fill="#4c78a8"/><path d="M40,0h9v9h-9Z" fill="#4c78a8"/><path d="M80,0h9v9h-9Z" fill="#4c78a8"/><path d="M90,10h9v9h-9Z" fill="#4c78a8"/><path d="M10,30h9v9h-9Z" fill="#4c78a8"/><path d="M40,30h9v9h-9Z" fill="#4c78a8"/><path d="M50,30h9v9h-9Z" fill="#4c78a8"/><path d="M60,30h9v9h-9Z" fill="#4c78a8"/><path d="M80,30h9v9h-9Z" fill="#4c78a8"/><path d="M100,30h9v9h-9Z" fill="#4c78a8"/><path d="M130,30h9v9h-9Z" fill="#f58518"/><path d="M150,30h9v9h-9Z" fill="#f58518"/><path d="M160,30h9v9h-9Z" fill="#f58518"/><path d="M170,30h9v9h-9Z" fill="#f58518"/><path d="M0,50h9v9h-9Z" fill="#4c78a8"/><path d="M40,50h9v9h-9Z" fill="#4c78a8"/><path d="M60,50h9v9h-9Z" fill="#4c78a8"/><path d="M80,50h9v9h-9Z" fill="#4c78a8"/><path d="M90,50h9v9h-9Z" fill="#4c78a8"/><path d="M100,50h9v9h-9Z" fill="#4c78a8"/><path d="M0,70h9v9h-9Z" fill="#4c78a8"/><path d="M10,70h9v9h-9Z" fill="#4c78a8"/><path d="M20,70h9v9h-9Z" fill="#4c78a8"/><path d="M40,70h9v9h-9Z" fill="#4c78a8"/><path d="M60,70h9v9h-9Z" fill="#4c78a8"/><path d="M80,70h9v9h-9Z" fill="#4c78a8"/><path d="M90,70h9v9h-9Z" fill="#4c78a8"/><path d="M0,90h9v9h-9Z" fill="#4c78a8"/><path d="M60,90h9v9h-9Z" fill="#4c78a8"/><path d="M80,90h9v9h-9Z" fill="#4c78a8"/><path d="M120,110h9v9h-9Z" fill="#72b7b2"/><path d="M140,110h9v9h-9Z" fill="#72b7b2"/><path d="M180,110h9v9h-9Z" fill="#72b7b2"/><path d="M200,110h9v9h-9Z" fill="#72b7b2"/><path d="M220,110h9v9h-9Z" fill="#72b7b2"/><path d="M110,130h9v9h-9Z" fill="#72b7b2"/><path d="M190,140h9v9h-9Z" fill="#72b7b2"/><path d="M10,160h9v9h-9Z" fill="#e45756"/><path d="M110,160h9v9h-9Z" fill="#72b7b2"/><path d="M140,160h9v9h-9Z" fill="#72b7b2"/><path d="M150,160h9v9h-9Z" fill="#72b7b2"/><path d="M10,170h9v9h-9Z" fill="#e45756"/><path d="M130,170h9v9h-9Z" fill="#72b7b2"/><path d="M150,170h9v9h-9Z" fill="#72b7b2"/><path d="M110,210h9v9h-9Z" fill="#72b7b2"/><path d="M120,210h9v9h-9Z" fill="#72b7b2"/><path d="M130,210h9v9h-9Z" fill="#72b7b2"/><path d="M140,210h9v9h-9Z" fill="#72b7b2"/><path d="M180,210h9v9h-9Z" fill="#72b7b2"/><path d="M190,210h9v9h-9Z" fill="#72b7b2"/><path d="M200,210h9v9h-9Z" fill="#72b7b2"/><path d="M220,210h9v9h-9Z" fill="#72b7b2"/></g></g><path class="foreground" aria-hidden="true" d="" display="none"/></g></g></g></svg>