<svg xmlns="http://www.w3.org/2000/svg" xmlns:xlink="http://www.w3.org/1999/xlink" version="1.1" class="marks" width="1544" height="1544" viewBox="0 0 772 772"><g fill="none" stroke-miterlimit="10" transform="translate(210,210)"><g class="mark-group role-frame root" role="graphics-object" aria-roledescription="group mark container"><g transform="translate(0,0)"><path class="background" aria-hidden="true" d="M0,0h560v560h-560Z"/><g><g class="mark-rect role-mark colHighlightOnColumnClick" role="graphics-symbol" aria-roledescription="rect mark container"><path d="M0,0h10v560h-10Z" fill-opacity="0.3"/><path d="M10,0h10v560h-10Z" fill-opacity="0.3"/><path d="M20,0h10v560h-10Z" fill-opacity="0.3"/><path d="M30,0h10v560h-10Z" fill-opacity="0.3"/><path d="M40,0h10v560h-10Z" fill-opacity="0.3"/><path d="M50,0h10v560h-10Z" fill-opacity="0.3"/><path d="M60,0h10v560h-10Z" fill-opacity="0.3"/><path d="M70,0h10v560h-10Z" fill-opacity="0.3"/><path d="M80,0h10v560h-10Z" fill-opacity="0.3"/><path d="M90,0h10v560h-10Z" fill-opacity="0.3"/><path d="M100,0h10v560h-10Z" fill-opacity="0.3"/><path d="M110,0h10v560h-10Z" fill-opacity="0.3"/><path d="M120,0h10v560h-10Z" fill-opacity="0.3"/><path d="M130,0h10v560h-10Z" fill-opacity="0.3"/><path d="M140,0h10v560h-10Z" fill-opacity="0.3"/><path d="M150,0h10v560h-10Z" fill-opacity="0.3"/><path d="M160,0h10v560h-10Z" fill-opacity="0.3"/><path d="M170,0h10v560h-10Z" fill-opacity="0.3"/><path d="M180,0h10v560h-10Z" fill-opacity="0.3"/><path d="M190,0h10v560h-10Z" fill-opacity="0.3"/><path d="M200,0h10v560h-10Z" fill-opacity="0.3"/><path d="M210,0h10v560h-10Z" fill-opacity="0.3"/><path d="M220,0h10v560h-10Z" fill-opacity="0.3"/><path d="M230,0h10v560h-10Z" fill-opacity="0.3"/><path d="M240,0h10v560h-10Z" fill-opacity="0.3"/><path d="M250,0h10v560h-10Z" fill-opacity="0.3"/><path d="M260,0h10v560h-10Z" fill-opacity="0.3"/><path d="M270,0h10v560h-10Z" fill-opacity="0.3"/><path d="M280,0h10v560h-10Z" fill-opacity="0.3"/><path d="M290,0h10v560h-10Z" fill-opacity="0.3"/><path d="M300,0h10v560h-10Z" fill-opacity="0.3"/><path d="M310,0h10v560h-10Z" fill-opacity="0.3"/><path d="M320,0h10v560h-10Z" fill-opacity="0.3"/><path d="M330,0h10v560h-10Z" fill-opacity="0.3"/><path d="M340,0h10v560h-10Z" fill-opacity="0.3"/><path d="M350,0h10v560h-10Z" fill-opacity="0.3"/><path d="M360,0h10v560h-10Z" fill-opacity="0.3"/><path d="M370,0h10v560h-10Z" fill-opacity="0.3"/><path d="M380,0h10v560h-10Z" fill-opacity="0.3"/><path d="M390,0h10v560h-10Z" fill-opacity="0.3"/><path d="M400,0h10v560h-10Z" fill-opacity="0.3"/><path d="M410,0h10v560h-10Z" fill-opacity="0.3"/><path d="M420,0h10v560h-10Z" fill-opacity="0.3"/><path d="M430,0h10v560h-10Z" fill-opacity="0.3"/><path d="M440,0h10v560h-10Z" fill-opacity="0.3"/><path d="M450,0h10v560h-10Z" fill-opacity="0.3"/><path d="M460,0h10v560h-10Z" fill-opacity="0.3"/><path d="M470,0h10v560h-10Z" fill-opacity="0.3"/><path d="M480,0h10v560h-10Z" fill-opacity="0.3"/><path d="M490,0h10v560h-10Z" fill-opacity="0.3"/><path d="M500,0h10v560h-10Z" fill-opacity="0.3"/><path d="M510,0h10v560h-10Z" fill-opacity="0.3"/><path d="M520,0h10v560h-10Z" fill-opacity="0.3"/><path d="M530,0h10v560h-10Z" fill-opacity="0.3"/><path d="M540,0h10v560h-10Z" fill-opacity="0.3"/><path d="M550,0h10v560h-10Z" fill-opacity="0.3"/></g><g class="mark-rect role-mark rowHighlight" role="graphics-symbol" aria-roledescription="rect mark container"><path d="M0,0h560v10h-560Z" fill-opacity="0.3"/><path d="M0,10h560v10h-560Z" fill-opacity="0.3"/><path d="M0,20h560v10h-560Z" fill-opacity="0.3"/><path d="M0,30h560v10h-560Z" fill-opacity="0.3"/><path d="M0,40h560v10h-560Z" fill-opacity="0.3"/><path d="M0,50h560v10h-560Z" fill-opacity="0.3"/><path d="M0,60h560v10h-560Z" fill-opacity="0.3"/><path d="M0,70h560v10h-560Z" fill-opacity="0.3"/><path d="M0,80h560v10h-560Z" fill-opacity="0.3"/><path d="M0,90h560v10h-560Z" fill-opacity="0.3"/><path d="M0,100h560v10h-560Z" fill-opacity="0.3"/><path d="M0,110h560v10h-560Z" fill-opacity="0.3"/><path d="M0,120h560v10h-560Z" fill-opacity="0.3"/><path d="M0,130h560v10h-560Z" fill-opacity="0.3"/><path d="M0,140h560v10h-560Z" fill-opacity="0.3"/><path d="M0,150h560v10h-560Z" fill-opacity="0.3"/><path d="M0,160h560v10h-560Z" fill-opacity="0.3"/><path d="M0,170h560v10h-560Z" fill-opacity="0.3"/><path d="M0,180h560v10h-560Z" fill-opacity="0.3"/><path d="M0,190h560v10h-560Z" fill-opacity="0.3"/><path d="M0,200h560v10h-560Z" fill-opacity="0.3"/><path d="M0,210h560v10h-560Z" fill-opacity="0.3"/><path d="M0,220h560v10h-560Z" fill-opacity="0.3"/><path d="M0,230h560v10h-560Z" fill-opacity="0.3"/><path d="M0,240h560v10h-560Z" fill-opacity="0.3"/><path d="M0,250h560v10h-560Z" fill-opacity="0.3"/><path d="M0,260h560v10h-560Z" fill-opacity="0.3"/><path d="M0,270h560v10h-560Z" fill-opacity="0.3"/><path d="M0,280h560v10h-560Z" fill-opacity="0.3"/><path d="M0,290h560v10h-560Z" fill-opacity="0.3"/><path d="M0,300h560v10h-560Z" fill-opacity="0.3"/><path d="M0,310h560v10h-560Z" fill-opacity="0.3"/><path d="M0,320h560v10h-560Z" fill-opacity="0.3"/><path d="M0,330h560v10h-560Z" fill-opacity="0.3"/><path d="M0,340h560v10h-560Z" fill-opacity="0.3"/><path d="M0,350h560v10h-560Z" fill-opacity="0.3"/><path d="M0,360h560v10h-560Z" fill-opacity="0.3"/><path d="M0,370h560v10h-560Z" fill-opacity="0.3"/><path d="M0,380h560v10h-560Z" fill-opacity="0.3"/><path d="M0,390h560v10h-560Z" fill-opacity="0.3"/><path d="M0,400h560v10h-560Z" fill-opacity="0.3"/><path d="M0,410h560v10h-560Z" fill-opacity="0.3"/><path d="M0,420h560v10h-560Z" fill-opacity="0.3"/><path d="M0,430h560v10h-560Z" fill-opacity="0.3"/><path d="M0,440h560v10h-560Z" fill-opacity="0.3"/><path d="M0,450h560v10h-560Z" fill-opacity="0.3"/><path d="M0,460h560v10h-560Z" fill-opacity="0.3"/><path d="M0,470h560v10h-560Z" fill-opacity="0.3"/><path d="M0,480h560v10h-560Z" fill-opacity="0.3"/><path d="M0,490h560v10h-560Z" fill-opacity="0.3"/><path d="M0,500h560v10h-560Z" fill-opacity="0.3"/><path d="M0,510h560v10h-560Z" fill-opacity="0.3"/><path d="M0,520h560v10h-560Z" fill-opacity="0.3"/><path d="M0,530h560v10h-560Z" fill-opacity="0.3"/><path d="M0,540h560v10h-560Z" fill-opacity="0.3"/><path d="M0,550h560v10h-560Z" fill-opacity="0.3"/></g><g class="mark-rect role-mark colHighlight" role="graphics-symbol" aria-roledescription="rect mark container"><path d="M0,0h10v560h-10Z" fill-opacity="0.3"/><path d="M10,0h10v560h-10Z" fill-opacity="0.3"/><path d="M20,0h10v560h-10Z" fill-opacity="0.3"/><path d="M30,0h10v560h-10Z" fill-opacity="0.3"/><path d="M40,0h10v560h-10Z" fill-opacity="0.3"/><path d="M50,0h10v560h-10Z" fill-opacity="0.3"/><path d="M60,0h10v560h-10Z" fill-opacity="0.3"/><path d="M70,0h10v560h-10Z" fill-opacity="0.3"/><path d="M80,0h10v560h-10Z" fill-opacity="0.3"/><path d="M90,0h10v560h-10Z" fill-opacity="0.3"/><path d="M100,0h10v560h-10Z" fill-opacity="0.3"/><path d="M110,0h10v560h-10Z" fill-opacity="0.3"/><path d="M120,0h10v560h-10Z" fill-opacity="0.3"/><path d="M130,0h10v560h-10Z" fill-opacity="0.3"/><path d="M140,0h10v560h-10Z" fill-opacity="0.3"/><path d="M150,0h10v560h-10Z" fill-opacity="0.3"/><path d="M160,0h10v560h-10Z" fill-opacity="0.3"/><path d="M170,0h10v560h-10Z" fill-opacity="0.3"/><path d="M180,0h10v560h-10Z" fill-opacity="0.3"/><path d="M190,0h10v560h-10Z" fill-opacity="0.3"/><path d="M200,0h10v560h-10Z" fill-opacity="0.3"/><path d="M210,0h10v560h-10Z" fill-opacity="0.3"/><path d="M220,0h10v560h-10Z" fill-opacity="0.3"/><path d="M230,0h10v560h-10Z" fill-opacity="0.3"/><path d="M240,0h10v560h-10Z" fill-opacity="0.3"/><path d="M250,0h10v560h-10Z" fill-opacity="0.3"/><path d="M260,0h10v560h-10Z" fill-opacity="0.3"/><path d="M270,0h10v560h-10Z" fill-opacity="0.3"/><path d="M280,0h10v560h-10Z" fill-opacity="0.3"/><path d="M290,0h10v560h-10Z" fill-opacity="0.3"/><path d="M300,0h10v560h-10Z" fill-opacity="0.3"/><path d="M310,0h10v560h-10Z" fill-opacity="0.3"/><path d="M320,0h10v560h-10Z" fill-opacity="0.3"/><path d="M330,0h10v560h-10Z" fill-opacity="0.3"/><path d="M340,0h10v560h-10Z" fill-opacity="0.3"/><path d="M350,0h10v560h-10Z" fill-opacity="0.3"/><path d="M360,0h10v560h-10Z" fill-opacity="0.3"/><path d="M370,0h10v560h-10Z" fill-opacity="0.3"/><path d="M380,0h10v560h-10Z" fill-opacity="0.3"/><path d="M390,0h10v560h-10Z" fill-opacity="0.3"/><path d="M400,0h10v560h-10Z" fill-opacity="0.3"/><path d="M410,0h10v560h-10Z" fill-opacity="0.3"/><path d="M420,0h10v560h-10Z" fill-opacity="0.3"/><path d="M430,0h10v560h-10Z" fill-opacity="0.3"/><path d="M440,0h10v560h-10Z" fill-opacity="0.3"/><path d="M450,0h10v560h-10Z" fill-opacity="0.3"/><path d="M460,0h10v560h-10Z" fill-opacity="0.3"/><path d="M470,0h10v560h-10Z" fill-opacity="0.3"/><path d="M480,0h10v560h-10Z" fill-opacity="0.3"/><path d="M490,0h10v560h-10Z" fill-opacity="0.3"/><path d="M500,0h10v560h-10Z" fill-opacity="0.3"/><path d="M510,0h10v560h-10Z" fill-opacity="0.3"/><path d="M520,0h10v560h-10Z" fill-opacity="0.3"/><path d="M530,0h10v560h-10Z" fill-opacity="0.3"/><path d="M540,0h10v560h-10Z" fill-opacity="0.3"/><path d="M550,0h10v560h-10Z" fill-opacity="0.3"/></g><g class="mark-rect role-mark rowHighlightOnColumnClick" role="graphics-symbol" aria-roledescription="rect mark container"><path d="M0,0h560v10h-560Z" fill-opacity="0.3"/><path d="M0,10h560v10h-560Z" fill-opacity="0.3"/><path d="M0,20h560v10h-560Z" fill-opacity="0.3"/><path d="M0,30h560v10h-560Z" fill-opacity="0.3"/><path d="M0,40h560v10h-560Z" fill-opacity="0.3"/><path d="M0,50h560v10h-560Z" fill-opacity="0.3"/><path d="M0,60h560v10h-560Z" fill-opacity="0.3"/><path d="M0,70h560v10h-560Z" fill-opacity="0.3"/><path d="M0,80h560v10h-560Z" fill-opacity="0.3"/><path d="M0,90h560v10h-560Z" fill-opacity="0.3"/><path d="M0,100h560v10h-560Z" fill-opacity="0.3"/><path d="M0,110h560v10h-560Z" fill-opacity="0.3"/><path d="M0,120h560v10h-560Z" fill-opacity="0.3"/><path d="M0,130h560v10h-560Z" fill-opacity="0.3"/><path d="M0,140h560v10h-560Z" fill-opacity="0.3"/><path d="M0,150h560v10h-560Z" fill-opacity="0.3"/><path d="M0,160h560v10h-560Z" fill-opacity="0.3"/><path d="M0,170h560v10h-560Z" fill-opacity="0.3"/><path d="M0,180h560v10h-560Z" fill-opacity="0.3"/><path d="M0,190h560v10h-560Z" fill-opacity="0.3"/><path d="M0,200h560v10h-560Z" fill-opacity="0.3"/><path d="M0,210h560v10h-560Z" fill-opacity="0.3"/><path d="M0,220h560v10h-560Z" fill-opacity="0.3"/><path d="M0,230h560v10h-560Z" fill-opacity="0.3"/><path d="M0,240h560v10h-560Z" fill-opacity="0.3"/><path d="M0,250h560v10h-560Z" fill-opacity="0.3"/><path d="M0,260h560v10h-560Z" fill-opacity="0.3"/><path d="M0,270h560v10h-560Z" fill-opacity="0.3"/><path d="M0,280h560v10h-560Z" fill-opacity="0.3"/><path d="M0,290h560v10h-560Z" fill-opacity="0.3"/><path d="M0,300h560v10h-560Z" fill-opacity="0.3"/><path d="M0,310h560v10h-560Z" fill-opacity="0.3"/><path d="M0,320h560v10h-560Z" fill-opacity="0.3"/><path d="M0,330h560v10h-560Z" fill-opacity="0.3"/><path d="M0,340h560v10h-560Z" fill-opacity="0.3"/><path d="M0,350h560v10h-560Z" fill-opacity="0.3"/><path d="M0,360h560v10h-560Z" fill-opacity="0.3"/><path d="M0,370h560v10h-560Z" fill-opacity="0.3"/><path d="M0,380h560v10h-560Z" fill-opacity="0.3"/><path d="M0,390h560v10h-560Z" fill-opacity="0.3"/><path d="M0,400h560v10h-560Z" fill-opacity="0.3"/><path d="M0,410h560v10h-560Z" fill-opacity="0.3"/><path d="M0,420h560v10h-560Z" fill-opacity="0.3"/><path d="M0,430h560v10h-560Z" fill-opacity="0.3"/><path d="M0,440h560v10h-560Z" fill-opacity="0.3"/><path d="M0,450h560v10h-560Z" fill-opacity="0.3"/><path d="M0,460h560v10h-560Z" fill-opacity="0.3"/><path d="M0,470h560v10h-560Z" fill-opacity="0.3"/><path d="M0,480h560v10h-560Z" fill-opacity="0.3"/><path d="M0,490h560v10h-560Z" fill-opacity="0.3"/><path d="M0,500h560v10h-560Z" fill-opacity="0.3"/><path d="M0,510h560v10h-560Z" fill-opacity="0.3"/><path d="M0,520h560v10h-560Z" fill-opacity="0.3"/><path d="M0,530h560v10h-560Z" fill-opacity="0.3"/><path d="M0,540h560v10h-560Z" fill-opacity="0.3"/><path d="M0,550h560v10h-560Z" fill-opacity="0.3"/></g><g class="mark-text role-mark columns" role="graphics-object" aria-roledescription="text mark container"><text text-anchor="start" transform="translate(5,-2) rotate(-90) translate(0,3)" font-family="sans-serif" font-size="10px" fill="black">context (Variable)</text><text text-anchor="start" transform="translate(15,-2) rotate(-90) translate(0,3)" font-family="sans-serif" font-size="10px" fill="black">privateDnsZoneRegistrationConfig (Variable)</text><text text-anchor="start" transform="translate(25,-2) rotate(-90) translate(0,3)" font-family="sans-serif" font-size="10px" fill="black">tags (Variable)</text><text text-anchor="start" transform="translate(35,-2) rotate(-90) translate(0,3)" font-family="sans-serif" font-size="10px" fill="black">storageAccount (Module)</text><text text-anchor="start" transform="translate(45,-2) rotate(-90) translate(0,3)" font-family="sans-serif" font-size="10px" fill="black">_vnet (Resource)</text><text text-anchor="start" transform="translate(55,-2) rotate(-90) translate(0,3)" font-family="sans-serif" font-size="10px" fill="black">FunctionStorageAccount (Module)</text><text text-anchor="start" transform="translate(65,-2) rotate(-90) translate(0,3)" font-family="sans-serif" font-size="10px" fill="black">zoneName (Local)</text><text text-anchor="start" transform="translate(75,-2) rotate(-90) translate(0,3)" font-family="sans-serif" font-size="10px" fill="black">laworkspace (Module)</text><text text-anchor="start" transform="translate(85,-2) rotate(-90) translate(0,3)" font-family="sans-serif" font-size="10px" fill="black">_nsg (Resource)</text><text text-anchor="start" transform="translate(95,-2) rotate(-90) translate(0,3)" font-family="sans-serif" font-size="10px" fill="black">_routeTable (Resource)</text><text text-anchor="start" transform="translate(105,-2) rotate(-90) translate(0,3)" font-family="sans-serif" font-size="10px" fill="black">_law (Resource)</text><text text-anchor="start" transform="translate(115,-2) rotate(-90) translate(0,3)" font-family="sans-serif" font-size="10px" fill="black">group (Local)</text><text text-anchor="start" transform="translate(125,-2) rotate(-90) translate(0,3)" font-family="sans-serif" font-size="10px" fill="black">selfhostedConfig (Variable)</text><text text-anchor="start" transform="translate(135,-2) rotate(-90) translate(0,3)" font-family="sans-serif" font-size="10px" fill="black">tableAlertsConfig (Variable)</text><text text-anchor="start" transform="translate(145,-2) rotate(-90) translate(0,3)" font-family="sans-serif" font-size="10px" fill="black">serviceBusAlertsConfig (Variable)</text><text text-anchor="start" transform="translate(155,-2) rotate(-90) translate(0,3)" font-family="sans-serif" font-size="10px" fill="black">serverFarmAlertsConfig (Variable)</text><text text-anchor="start" transform="translate(165,-2) rotate(-90) translate(0,3)" font-family="sans-serif" font-size="10px" fill="black">funtionsAlertsConfig (Variable)</text><text text-anchor="start" transform="translate(175,-2) rotate(-90) translate(0,3)" font-family="sans-serif" font-size="10px" fill="black">blobStorageAlertsConfig (Variable)</text><text text-anchor="start" transform="translate(185,-2) rotate(-90) translate(0,3)" font-family="sans-serif" font-size="10px" fill="black">eastServiceBus (Module)</text><text text-anchor="start" transform="translate(195,-2) rotate(-90) translate(0,3)" font-family="sans-serif" font-size="10px" fill="black">eastSharedStoragePrivateEndpoint (Module)</text><text text-anchor="start" transform="translate(205,-2) rotate(-90) translate(0,3)" font-family="sans-serif" font-size="10px" fill="black">eastFunctionStoragePrivateEndpoint (Module)</text><text text-anchor="start" transform="translate(215,-2) rotate(-90) translate(0,3)" font-family="sans-serif" font-size="10px" fill="black">resourceId (Output)</text><text text-anchor="start" transform="translate(225,-2) rotate(-90) translate(0,3)" font-family="sans-serif" font-size="10px" fill="black">subnet (Resource)</text><text text-anchor="start" transform="translate(235,-2) rotate(-90) translate(0,3)" font-family="sans-serif" font-size="10px" fill="black">storageResourceId (Output)</text><text text-anchor="start" transform="translate(245,-2) rotate(-90) translate(0,3)" font-family="sans-serif" font-size="10px" fill="black">servicePlanResourceId (Output)</text><text text-anchor="start" transform="translate(255,-2) rotate(-90) translate(0,3)" font-family="sans-serif" font-size="10px" fill="black">endpoints (Module)</text><text text-anchor="start" transform="translate(265,-2) rotate(-90) translate(0,3)" font-family="sans-serif" font-size="10px" fill="black">laName (Output)</text><text text-anchor="start" transform="translate(275,-2) rotate(-90) translate(0,3)" font-family="sans-serif" font-size="10px" fill="black">laId (Output)</text><text text-anchor="start" transform="translate(285,-2) rotate(-90) translate(0,3)" font-family="sans-serif" font-size="10px" fill="black">insightName (Output)</text><text text-anchor="start" transform="translate(295,-2) rotate(-90) translate(0,3)" font-family="sans-serif" font-size="10px" fill="black">insightId (Output)</text><text text-anchor="start" transform="translate(305,-2) rotate(-90) translate(0,3)" font-family="sans-serif" font-size="10px" fill="black">diagnosticSetId (Output)</text><text text-anchor="start" transform="translate(315,-2) rotate(-90) translate(0,3)" font-family="sans-serif" font-size="10px" fill="black">subNetData (Module)</text><text text-anchor="start" transform="translate(325,-2) rotate(-90) translate(0,3)" font-family="sans-serif" font-size="10px" fill="black">name (Output)</text><text text-anchor="start" transform="translate(335,-2) rotate(-90) translate(0,3)" font-family="sans-serif" font-size="10px" fill="black">resourceGroup (Module)</text><text text-anchor="start" transform="translate(345,-2) rotate(-90) translate(0,3)" font-family="sans-serif" font-size="10px" fill="black">resourceGroupNames (Variable)</text><text text-anchor="start" transform="translate(355,-2) rotate(-90) translate(0,3)" font-family="sans-serif" font-size="10px" fill="black">resourceGroupNamesArray (Variable)</text><text text-anchor="start" transform="translate(365,-2) rotate(-90) translate(0,3)" font-family="sans-serif" font-size="10px" fill="black">networkConfig (Variable)</text><text text-anchor="start" transform="translate(375,-2) rotate(-90) translate(0,3)" font-family="sans-serif" font-size="10px" fill="black">monitoringConfig (Variable)</text><text text-anchor="start" transform="translate(385,-2) rotate(-90) translate(0,3)" font-family="sans-serif" font-size="10px" fill="black">serviceBusConfig (Variable)</text><text text-anchor="start" transform="translate(395,-2) rotate(-90) translate(0,3)" font-family="sans-serif" font-size="10px" fill="black">sharedStorageConfig (Variable)</text><text text-anchor="start" transform="translate(405,-2) rotate(-90) translate(0,3)" font-family="sans-serif" font-size="10px" fill="black">sharedComputeConfig (Variable)</text><text text-anchor="start" transform="translate(415,-2) rotate(-90) translate(0,3)" font-family="sans-serif" font-size="10px" fill="black">sharedAlertsConfig (Variable)</text><text text-anchor="start" transform="translate(425,-2) rotate(-90) translate(0,3)" font-family="sans-serif" font-size="10px" fill="black">actionGroupAlertsConfig (Variable)</text><text text-anchor="start" transform="translate(435,-2) rotate(-90) translate(0,3)" font-family="sans-serif" font-size="10px" fill="black">eastVnet (Resource)</text><text text-anchor="start" transform="translate(445,-2) rotate(-90) translate(0,3)" font-family="sans-serif" font-size="10px" fill="black">eastResourceGroups (Module)</text><text text-anchor="start" transform="translate(455,-2) rotate(-90) translate(0,3)" font-family="sans-serif" font-size="10px" fill="black">eastSubnets (Module)</text><text text-anchor="start" transform="translate(465,-2) rotate(-90) translate(0,3)" font-family="sans-serif" font-size="10px" fill="black">eastMonitoring (Module)</text><text text-anchor="start" transform="translate(475,-2) rotate(-90) translate(0,3)" font-family="sans-serif" font-size="10px" fill="black">sharedStorage (Module)</text><text text-anchor="start" transform="translate(485,-2) rotate(-90) translate(0,3)" font-family="sans-serif" font-size="10px" fill="black">eastAppService (Module)</text><text text-anchor="start" transform="translate(495,-2) rotate(-90) translate(0,3)" font-family="sans-serif" font-size="10px" fill="black">serverFarm (Module)</text><text text-anchor="start" transform="translate(505,-2) rotate(-90) translate(0,3)" font-family="sans-serif" font-size="10px" fill="black">_subnet (Resource)</text><text text-anchor="start" transform="translate(515,-2) rotate(-90) translate(0,3)" font-family="sans-serif" font-size="10px" fill="black">insightsDashboard (Module)</text><text text-anchor="start" transform="translate(525,-2) rotate(-90) translate(0,3)" font-family="sans-serif" font-size="10px" fill="black">insightsDiagnostingSettings (Module)</text><text text-anchor="start" transform="translate(535,-2) rotate(-90) translate(0,3)" font-family="sans-serif" font-size="10px" fill="black">subNetApp (Module)</text><text text-anchor="start" transform="translate(545,-2) rotate(-90) translate(0,3)" font-family="sans-serif" font-size="10px" fill="black">subNetPepApp (Module)</text><text text-anchor="start" transform="translate(555,-2) rotate(-90) translate(0,3)" font-family="sans-serif" font-size="10px" fill="black">namespace (Module)</text></g><g class="mark-text role-mark rows" role="graphics-object" aria-roledescription="text mark container"><text text-anchor="end" transform="translate(-2,8)" font-family="sans-serif" font-size="10px" fill="black">context (Variable)</text><text text-anchor="end" transform="translate(-2,18)" font-family="sans-serif" font-size="10px" fill="black">privateDnsZoneRegistrationConfig (Variable)</text><text text-anchor="end" transform="translate(-2,28)" font-family="sans-serif" font-size="10px" fill="black">tags (Variable)</text><text text-anchor="end" transform="translate(-2,38)" font-family="sans-serif" font-size="10px" fill="black">storageAccount (Module)</text><text text-anchor="end" transform="translate(-2,48)" font-family="sans-serif" font-size="10px" fill="black">_vnet (Resource)</text><text text-anchor="end" transform="translate(-2,58)" font-family="sans-serif" font-size="10px" fill="black">FunctionStorageAccount (Module)</text><text text-anchor="end" transform="translate(-2,68)" font-family="sans-serif" font-size="10px" fill="black">zoneName (Local)</text><text text-anchor="end" transform="translate(-2,78)" font-family="sans-serif" font-size="10px" fill="black">laworkspace (Module)</text><text text-anchor="end" transform="translate(-2,88)" font-family="sans-serif" font-size="10px" fill="black">_nsg (Resource)</text><text text-anchor="end" transform="translate(-2,98)" font-family="sans-serif" font-size="10px" fill="black">_routeTable (Resource)</text><text text-anchor="end" transform="translate(-2,108)" font-family="sans-serif" font-size="10px" fill="black">_law (Resource)</text><text text-anchor="end" transform="translate(-2,118)" font-family="sans-serif" font-size="10px" fill="black">group (Local)</text><text text-anchor="end" transform="translate(-2,128)" font-family="sans-serif" font-size="10px" fill="black">selfhostedConfig (Variable)</text><text text-anchor="end" transform="translate(-2,138)" font-family="sans-serif" font-size="10px" fill="black">tableAlertsConfig (Variable)</text><text text-anchor="end" transform="translate(-2,148)" font-family="sans-serif" font-size="10px" fill="black">serviceBusAlertsConfig (Variable)</text><text text-anchor="end" transform="translate(-2,158)" font-family="sans-serif" font-size="10px" fill="black">serverFarmAlertsConfig (Variable)</text><text text-anchor="end" transform="translate(-2,168)" font-family="sans-serif" font-size="10px" fill="black">funtionsAlertsConfig (Variable)</text><text text-anchor="end" transform="translate(-2,178)" font-family="sans-serif" font-size="10px" fill="black">blobStorageAlertsConfig (Variable)</text><text text-anchor="end" transform="translate(-2,188)" font-family="sans-serif" font-size="10px" fill="black">eastServiceBus (Module)</text><text text-anchor="end" transform="translate(-2,198)" font-family="sans-serif" font-size="10px" fill="black">eastSharedStoragePrivateEndpoint (Module)</text><text text-anchor="end" transform="translate(-2,208)" font-family="sans-serif" font-size="10px" fill="black">eastFunctionStoragePrivateEndpoint (Module)</text><text text-anchor="end" transform="translate(-2,218)" font-family="sans-serif" font-size="10px" fill="black">resourceId (Output)</text><text text-anchor="end" transform="translate(-2,228)" font-family="sans-serif" font-size="10px" fill="black">subnet (Resource)</text><text text-anchor="end" transform="translate(-2,238)" font-family="sans-serif" font-size="10px" fill="black">storageResourceId (Output)</text><text text-anchor="end" transform="translate(-2,248)" font-family="sans-serif" font-size="10px" fill="black">servicePlanResourceId (Output)</text><text text-anchor="end" transform="translate(-2,258)" font-family="sans-serif" font-size="10px" fill="black">endpoints (Module)</text><text text-anchor="end" transform="translate(-2,268)" font-family="sans-serif" font-size="10px" fill="black">laName (Output)</text><text text-anchor="end" transform="translate(-2,278)" font-family="sans-serif" font-size="10px" fill="black">laId (Output)</text><text text-anchor="end" transform="translate(-2,288)" font-family="sans-serif" font-size="10px" fill="black">insightName (Output)</text><text text-anchor="end" transform="translate(-2,298)" font-family="sans-serif" font-size="10px" fill="black">insightId (Output)</text><text text-anchor="end" transform="translate(-2,308)" font-family="sans-serif" font-size="10px" fill="black">diagnosticSetId (Output)</text><text text-anchor="end" transform="translate(-2,318)" font-family="sans-serif" font-size="10px" fill="black">subNetData (Module)</text><text text-anchor="end" transform="translate(-2,328)" font-family="sans-serif" font-size="10px" fill="black">name (Output)</text><text text-anchor="end" transform="translate(-2,338)" font-family="sans-serif" font-size="10px" fill="black">resourceGroup (Module)</text><text text-anchor="end" transform="translate(-2,348)" font-family="sans-serif" font-size="10px" fill="black">resourceGroupNames (Variable)</text><text text-anchor="end" transform="translate(-2,358)" font-family="sans-serif" font-size="10px" fill="black">resourceGroupNamesArray (Variable)</text><text text-anchor="end" transform="translate(-2,368)" font-family="sans-serif" font-size="10px" fill="black">networkConfig (Variable)</text><text text-anchor="end" transform="translate(-2,378)" font-family="sans-serif" font-size="10px" fill="black">monitoringConfig (Variable)</text><text text-anchor="end" transform="translate(-2,388)" font-family="sans-serif" font-size="10px" fill="black">serviceBusConfig (Variable)</text><text text-anchor="end" transform="translate(-2,398)" font-family="sans-serif" font-size="10px" fill="black">sharedStorageConfig (Variable)</text><text text-anchor="end" transform="translate(-2,408)" font-family="sans-serif" font-size="10px" fill="black">sharedComputeConfig (Variable)</text><text text-anchor="end" transform="translate(-2,418)" font-family="sans-serif" font-size="10px" fill="black">sharedAlertsConfig (Variable)</text><text text-anchor="end" transform="translate(-2,428)" font-family="sans-serif" font-size="10px" fill="black">actionGroupAlertsConfig (Variable)</text><text text-anchor="end" transform="translate(-2,438)" font-family="sans-serif" font-size="10px" fill="black">eastVnet (Resource)</text><text text-anchor="end" transform="translate(-2,448)" font-family="sans-serif" font-size="10px" fill="black">eastResourceGroups (Module)</text><text text-anchor="end" transform="translate(-2,458)" font-family="sans-serif" font-size="10px" fill="black">eastSubnets (Module)</text><text text-anchor="end" transform="translate(-2,468)" font-family="sans-serif" font-size="10px" fill="black">eastMonitoring (Module)</text><text text-anchor="end" transform="translate(-2,478)" font-family="sans-serif" font-size="10px" fill="black">sharedStorage (Module)</text><text text-anchor="end" transform="translate(-2,488)" font-family="sans-serif" font-size="10px" fill="black">eastAppService (Module)</text><text text-anchor="end" transform="translate(-2,498)" font-family="sans-serif" font-size="10px" fill="black">serverFarm (Module)</text><text text-anchor="end" transform="translate(-2,508)" font-family="sans-serif" font-size="10px" fill="black">_subnet (Resource)</text><text text-anchor="end" transform="translate(-2,518)" font-family="sans-serif" font-size="10px" fill="black">insightsDashboard (Module)</text><text text-anchor="end" transform="translate(-2,528)" font-family="sans-serif" font-size="10px" fill="black">insightsDiagnostingSettings (Module)</text><text text-anchor="end" transform="translate(-2,538)" font-family="sans-serif" font-size="10px" fill="black">subNetApp (Module)</text><text text-anchor="end" transform="translate(-2,548)" font-family="sans-serif" font-size="10px" fill="black">subNetPepApp (Module)</text><text text-anchor="end" transform="translate(-2,558)" font-family="sans-serif" font-size="10px" fill="black">namespace (Module)</text></g><g class="mark-rect role-mark" role="graphics-symbol" aria-roledescription="rect mark container"><path d="M0,120h9v9h-9Z" fill="#4c78a8"/><path d="M390,130h9v9h-9Z" fill="#4c78a8"/><path d="M410,130h9v9h-9Z" fill="#4c78a8"/><path d="M420,130h9v9h-9Z" fill="#4c78a8"/><path d="M380,140h9v9h-9Z" fill="#4c78a8"/><path d="M410,140h9v9h-9Z" fill="#4c78a8"/><path d="M420,140h9v9h-9Z" fill="#4c78a8"/><path d="M400,150h9v9h-9Z" fill="#4c78a8"/><path d="M410,150h9v9h-9Z" fill="#4c78a8"/><path d="M420,150h9v9h-9Z" fill="#4c78a8"/><path d="M0,160h9v9h-9Z" fill="#4c78a8"/><path d="M340,160h9v9h-9Z" fill="#4c78a8"/><path d="M410,160h9v9h-9Z" fill="#4c78a8"/><path d="M420,160h9v9h-9Z" fill="#4c78a8"/><path d="M390,170h9v9h-9Z" fill="#4c78a8"/><path d="M410,170h9v9h-9Z" fill="#4c78a8"/><path d="M420,170h9v9h-9Z" fill="#4c78a8"/><path d="M0,180h9v9h-9Z" fill="#4c78a8"/><path d="M20,180h9v9h-9Z" fill="#4c78a8"/><path d="M370,180h9v9h-9Z" fill="#4c78a8"/><path d="M380,180h9v9h-9Z" fill="#4c78a8"/><path d="M440,180h9v9h-9Z" fill="#4c78a8"/><path d="M460,180h9v9h-9Z" fill="#4c78a8"/><path d="M0,190h9v9h-9Z" fill="#4c78a8"/><path d="M10,190h9v9h-9Z" fill="#4c78a8"/><path d="M360,190h9v9h-9Z" fill="#4c78a8"/><path d="M390,190h9v9h-9Z" fill="#4c78a8"/><path d="M430,190h9v9h-9Z" fill="#4c78a8"/><path d="M440,190h9v9h-9Z" fill="#4c78a8"/><path d="M450,190h9v9h-9Z" fill="#4c78a8"/><path d="M470,190h9v9h-9Z" fill="#4c78a8"/><path d="M0,200h9v9h-9Z" fill="#4c78a8"/><path d="M10,200h9v9h-9Z" fill="#4c78a8"/><path d="M360,200h9v9h-9Z" fill="#4c78a8"/><path d="M390,200h9v9h-9Z" fill="#4c78a8"/><path d="M430,200h9v9h-9Z" fill="#4c78a8"/><path d="M440,200h9v9h-9Z" fill="#4c78a8"/><path d="M450,200h9v9h-9Z" fill="#4c78a8"/><path d="M480,200h9v9h-9Z" fill="#4c78a8"/><path d="M30,210h9v9h-9Z" fill="#4c78a8"/><path d="M550,210h9v9h-9Z" fill="#4c78a8"/><path d="M40,220h9v9h-9Z" fill="#4c78a8"/><path d="M50,230h9v9h-9Z" fill="#4c78a8"/><path d="M490,240h9v9h-9Z" fill="#4c78a8"/><path d="M40,250h9v9h-9Z" fill="#4c78a8"/><path d="M60,250h9v9h-9Z" fill="#4c78a8"/><path d="M500,250h9v9h-9Z" fill="#4c78a8"/><path d="M70,260h9v9h-9Z" fill="#4c78a8"/><path d="M70,270h9v9h-9Z" fill="#4c78a8"/><path d="M510,280h9v9h-9Z" fill="#4c78a8"/><path d="M510,290h9v9h-9Z" fill="#4c78a8"/><path d="M520,300h9v9h-9Z" fill="#4c78a8"/><path d="M40,310h9v9h-9Z" fill="#4c78a8"/><path d="M80,310h9v9h-9Z" fill="#4c78a8"/><path d="M90,310h9v9h-9Z" fill="#4c78a8"/><path d="M540,310h9v9h-9Z" fill="#4c78a8"/><path d="M550,320h9v9h-9Z" fill="#4c78a8"/><path d="M110,330h9v9h-9Z" fill="#4c78a8"/><path d="M0,340h9v9h-9Z" fill="#4c78a8"/><path d="M340,350h9v9h-9Z" fill="#4c78a8"/><path d="M0,360h9v9h-9Z" fill="#4c78a8"/><path d="M340,360h9v9h-9Z" fill="#4c78a8"/><path d="M0,370h9v9h-9Z" fill="#4c78a8"/><path d="M340,370h9v9h-9Z" fill="#4c78a8"/><path d="M0,380h9v9h-9Z" fill="#4c78a8"/><path d="M340,380h9v9h-9Z" fill="#4c78a8"/><path d="M0,390h9v9h-9Z" fill="#4c78a8"/><path d="M340,390h9v9h-9Z" fill="#4c78a8"/><path d="M360,390h9v9h-9Z" fill="#4c78a8"/><path d="M0,400h9v9h-9Z" fill="#4c78a8"/><path d="M340,400h9v9h-9Z" fill="#4c78a8"/><path d="M0,410h9v9h-9Z" fill="#4c78a8"/><path d="M0,420h9v9h-9Z" fill="#4c78a8"/><path d="M340,420h9v9h-9Z" fill="#4c78a8"/><path d="M410,420h9v9h-9Z" fill="#4c78a8"/><path d="M0,430h9v9h-9Z" fill="#4c78a8"/><path d="M360,430h9v9h-9Z" fill="#4c78a8"/><path d="M0,440h9v9h-9Z" fill="#4c78a8"/><path d="M20,440h9v9h-9Z" fill="#4c78a8"/><path d="M350,440h9v9h-9Z" fill="#4c78a8"/><path d="M0,450h9v9h-9Z" fill="#4c78a8"/><path d="M360,450h9v9h-9Z" fill="#4c78a8"/><path d="M0,460h9v9h-9Z" fill="#4c78a8"/><path d="M20,460h9v9h-9Z" fill="#4c78a8"/><path d="M370,460h9v9h-9Z" fill="#4c78a8"/><path d="M440,460h9v9h-9Z" fill="#4c78a8"/><path d="M0,470h9v9h-9Z" fill="#4c78a8"/><path d="M20,470h9v9h-9Z" fill="#4c78a8"/><path d="M390,470h9v9h-9Z" fill="#4c78a8"/><path d="M440,470h9v9h-9Z" fill="#4c78a8"/><path d="M0,480h9v9h-9Z" fill="#4c78a8"/><path d="M340,480h9v9h-9Z" fill="#4c78a8"/><path d="M390,480h9v9h-9Z" fill="#4c78a8"/><path d="M400,480h9v9h-9Z" fill="#4c78a8"/><path d="M430,480h9v9h-9Z" fill="#4c78a8"/><path d="M440,480h9v9h-9Z" fill="#4c78a8"/><path d="M450,480h9v9h-9Z" fill="#4c78a8"/><path d="M460,480h9v9h-9Z" fill="#4c78a8"/><path d="M50,490h9v9h-9Z" fill="#4c78a8"/><path d="M40,500h9v9h-9Z" fill="#4c78a8"/><path d="M70,510h9v9h-9Z" fill="#4c78a8"/><path d="M70,520h9v9h-9Z" fill="#4c78a8"/><path d="M40,530h9v9h-9Z" fill="#4c78a8"/><path d="M80,530h9v9h-9Z" fill="#4c78a8"/><path d="M90,530h9v9h-9Z" fill="#4c78a8"/><path d="M40,540h9v9h-9Z" fill="#4c78a8"/><path d="M80,540h9v9h-9Z" fill="#4c78a8"/><path d="M90,540h9v9h-9Z" fill="#4c78a8"/><path d="M530,540h9v9h-9Z" fill="#4c78a8"/><path d="M100,550h9v9h-9Z" fill="#4c78a8"/></g></g><path class="foreground" aria-hidden="true" d="" display="none"/></g></g></g></svg>